<svg aria-hidden="true" style="width:0;height:0;position:absolute;overflow:hidden" xmlns="http://www.w3.org/2000/svg"><defs><symbol id="icon-Facebook" viewBox="0 0 32 32"><path fill="#fffefc" style="fill:var(--color1,#fffefc)" d="M31.673 16c0 8.656-7.017 15.673-15.673 15.673S.327 24.656.327 16C.327 7.344 7.344.327 16 .327S31.673 7.344 31.673 16z"/><path fill="#121313" style="fill:var(--color2,#121313)" d="M14.136 20.137c-.08-1.044-.08-2.088-.161-3.212 0-.562-.241-.964-.883-.964-.402 0-.803.08-.883-.482-.08-.723-.241-1.526 0-2.249 0-.08.321-.241.482-.241 1.205.241 1.445-.402 1.445-1.365 0-2.57 2.168-3.935 4.979-3.774.803.08.803.723.803 1.285-.08.562.241 1.365-.803 1.365-.883-.08-1.526.241-1.526 1.285 0 .723.08 1.285.964 1.365 1.285.08 1.044.964 1.044 1.847.08.964-.401 1.285-1.285 1.285s-1.044.482-1.044 1.285c0 1.767 0 3.453-.08 5.22-.08 1.124-.321 1.205-1.847 1.124-1.044 0-1.205-.482-1.124-1.365-.161-.723-.161-1.526-.08-2.409z"/></symbol><symbol id="icon-Instagram" viewBox="0 0 32 32"><path fill="#fffefc" style="fill:var(--color1,#fffefc)" d="M31.673 16c0 8.656-7.017 15.673-15.673 15.673S.327 24.656.327 16C.327 7.344 7.344.327 16 .327S31.673 7.344 31.673 16z"/><path fill="#121313" style="fill:var(--color2,#121313)" d="M15.889 23.522c-1.376 0-2.752.082-4.047 0-1.862-.165-2.59-.824-2.914-2.801-.405-2.307-.567-4.531-.324-6.838.081-.824.162-1.73.324-2.554.243-1.73.971-2.472 2.671-2.884.729-.165 1.376-.247 2.105-.165 1.538.082 3.076.082 4.614-.082.729-.082 1.376 0 2.105.082 1.376.165 2.348.906 2.509 2.307.486 3.46.89 6.921.243 10.381-.324 1.648-1.052 2.307-2.671 2.636-1.457.082-2.995 0-4.614-.082zm.324-11.04c-1.862-.082-3.481 1.318-3.643 3.049-.162 2.142 1.133 3.543 3.319 3.708 1.7.082 3.319-1.401 3.481-3.296.162-1.73-1.295-3.378-3.157-3.46zm5.019-1.319c-.081-.494-.324-.824-.89-.824-.648 0-.971.412-.971.989s.324.989.971.989c.648-.082.89-.494.89-1.153z"/></symbol><symbol id="icon-Telegram" viewBox="0 0 32 32"><path fill="#fffefc" style="fill:var(--color1,#fffefc)" d="M31.673 16c0 8.656-7.017 15.673-15.673 15.673S.327 24.656.327 16C.327 7.344 7.344.327 16 .327S31.673 7.344 31.673 16z"/><path fill="#121313" style="fill:var(--color2,#121313)" d="M6.531 16.971c1.807-1.15 3.121-1.971 4.518-2.793 3.286-1.807 6.489-3.614 9.693-5.586 1.232-.739 1.561-.575 1.561.904-.082 1.068-.246 2.054-.411 3.121-.493 3.039-1.068 6.079-1.561 9.118-.164.904-.493 1.15-1.314.657-.411-.246-.821-.329-1.232-.493-2.136-.904-2.382-.904-3.943.821-.329.329-.411.821-1.068.904-.246-1.561-.575-2.957.575-4.354 1.15-1.479 2.218-2.875 3.45-4.354.329-.411.575-.821.739-1.314-1.889 1.232-3.779 2.546-5.339 4.189-.575.657-1.068.739-1.889.411-1.068-.411-2.218-.739-3.779-1.232z"/></symbol><symbol id="icon-donut" viewBox="0 0 32 32"><path stroke-width=".4" d="M5.242 10.624c-.991 2.016-2.312 6.52-.986 9.98 1.616 4.216 5.058 6.814 9.951 7.183s8.383-2.58 9.549-4.403c.79-1.235 1.839-4.07 2.368-6.613.123-1.08.227-2.127.095-3.519-.087-.91-.118-1.877-1.064-3.852-1.445-2.224-2.623-3.099-4.42-4.131-1.324-.76-4.196-1.604-6.557-1.151-2.577.495-3.343.661-5.592 2.357-2.24 1.688-3.079 3.57-3.342 4.147zm0 0c.678.304 1.783 1.199.779 2.347-1.254 1.435-1.538 2.263-.877 2.734s1.646.998.974 1.913c-.672.915-1.44 1.265-.246 2.495s2.93 1.053 3.148 1.151c.218.098.953-.181.248 1.587s.901 1.881 1.652 1.957c.601.061 1.656-.387 2.109-.618.321-.262 1.178-.566 2.043.308 1.08 1.092 2.333.438 2.746.102s.802-1.204 2.036-.651c1.235.554 1.899-.538 2.118-1.222s.332-.546.51-.553c.178-.007.625-1.978 1.829-2.133s1.221-.956 1.244-1.006M13.2 13.497c-.447.842-.124 1.768.093 2.126.602.992 1.831 2.159 3.55 2.199 1.568.037 2.141-.69 2.401-1.269l.064-.145M13.2 13.497c.559-1.052 2.401-1.269 2.401-1.269s2.277-.021 3.574 1.95c.597.907.374 1.665.132 2.231M13.2 13.497c.009-.344.081-1.075.301-1.255.275-.224.792-.6.947-1.139s.51-.553 1.091-.293c.581.26.346.589 1.001.101s1.108-.719 1.341-.267l.128.492c.094.245.436.7 1.057.561.776-.173.835-.019 1.017.456.201.524-.211.861.353 1.548s.419.622.217.879c-.196.249-1.054 1.178-1.345 1.829M8.371 8.119l1.429.119m-1.981 1.891-.22 1.464m3.552.638.482 1.258m2.772-5.792.062 1.418m4.877.015-.696 1.164m-.128-5.355.025 1.501m5.21 1.801-1.551.347m1.753 4.26 1.315.763m-2.907.26c-.052.116-.239 1.051-.326 1.504m3.372 2.207c-.026.058-.658.429-.97.607m-4.393-.319 1.51.329m.594 2.178c.006.142-.403 1.093-.608 1.551m-3.349-1.675c.116.052.348.909.45 1.331m-4.814-4.243-.188 1.392m-.595 3.468 1.525.684m-7.155-4.858.83 1.067M6.64 14.899c.116.052 1.052-.142 1.506-.245"/></symbol><symbol id="icon-makaroon" viewBox="0 0 32 32"><path stroke-width=".4" d="M6.721 9.502c.075.444.204.845.34 1.155.442.755 1.747 2.6 3.437 3.94 2.113 1.676 4.472 2.86 6.193 3.6s6.097 1.583 6.393 1.485c.225-.075 2.646.311 3.964-.718M6.721 9.502c-.231-1.362.04-3.121 2.119-3.86 2.756-.98 6.788.125 8.46.8 1.852.806 5.928 2.803 7.421 4.34 1.866 1.921 3.536 3.99 3.138 6.744-.095.656-.399 1.117-.811 1.439M6.721 9.502c-.247.122-.662.357-.545.711s-.22.237-.394.295c-.148.049.073.468.196.591.491.493-.541.098-.312.506s1.636 2.251 3.7 4.025c1.227.936 2.499 1.919 3.931 2.711 2.392 1.323 4.939 2.254 6.342 2.568 3.541.792 5.016.795 5.656.746m-.001-.001c.64-.048.262-.376.493-.491.172-.086.452.079.492.001s0-.246.001-.492c0-.246.099-.197.394-.295s.099-.197.001-.492.295-.098.492-.245c.158-.118-.014-.499-.119-.675m-1.754 2.689c1.022.513.424 1.198-.002 1.476M5.977 12.082c-.148.049-1.181.146-1.133 1.031a.615.615 0 0 0 .015.098m20.433 9.919c-.689.065-2.214.193-2.804.192-.738-.001-6.147-.993-9.44-3.015-2.634-1.617-4.603-3.172-5.258-3.747-.924-.817-2.742-2.579-2.931-3.35m20.433 9.92c.115.099.314.305.196.345l-.443.147.196.345c0 .019-.107.057-.282.104M4.45 13.408c-.197.196.277 1.329.538 1.87 1.717 2.954 3.093 3.891 3.24 4.088s5.356 3.55 8.11 4.44c2.203.712 4.951.762 6.049.698.608.001 1.978-.271 2.572-.432M4.45 13.408c.197-.196.355-.213.409-.196m-.409.196c-.213-.066-.685.387-.935.885-.493.983-.254 1.642.29 3.099 1.47 3.938 8.155 7.047 8.352 7.145.72.361 2.639 1.157 4.474 1.63 1.925.497 3.489.644 4.671.498s1.725-.488 2.216-.734c.574-.287 1.552-1.313 1.441-1.861m-19.38-8.935.314 1.09m1.06.83.983.493m.463.796.814 1.076m.612-.73 1.01 1.175m.933 1.084 1.426.101m1.131.69 1.671 1.085m1.131.198 1.504-.107m1.123.757 1.475.248m1.454-.008 1.526-.289M6.983 11.602l.617.732m-.1.934 1.081.543m1.228.933c.158.121.557.742.737 1.038m1.164.868 1.294.365m1.494 1.436 1.651.143m1.574.544c.236.118.753.542.983.739m1.672.347 1.18.1m1.478-.002c.157.079.752.592 1.029.838m2.019-1.272c-.259.123-.849.547-1.111.743"/></symbol><symbol id="icon-cupcake" viewBox="0 0 32 32"><path stroke-width=".4" d="M6.958 19.638c1.063 3.231 3.391 8 3.32 8-.058 0 2.008 1.757 5.226 1.929 1.687.091 3.864.109 5.845-1.573l3.5-7.911m-17.891-.445c-.142-.996.354-2.134.62-2.579m-.62 2.579c.236.178.868.427 1.506 0 .797-.534.709.445.974.8m15.411-.356c.207-.385.425-1.334-.354-2.046.679-.889 1.311-3.095-1.594-4.802m1.948 6.848c-.384.356-1.205.96-1.417.534s-.561-.237-.709-.089c-.09.25-.323.638-.649.647m.826-7.939c.059-.652-.248-2.188-1.948-3.113.089-.563-.159-1.957-1.86-3.024m3.808 6.137c-1.638 2.202-4.171 2.027-4.523 2.027s-.88-.44-2.113-.088c-1.232.352-1.584.44-3.697.529-1.69.07-2.849-1.615-3.217-2.467m9.742-6.138c.118-.623.071-1.814-1.063-1.601m1.063 1.601c-.089.19-.425.615-1.063.798m0-2.399c.325-.83 1.754-2.401 4.871-2.046.177.178.602.427.886 0 .354-.534.089-.711-.177-.978-.213-.213-.679.089-.886.267-1.388 0-4.428.48-5.491 2.401m.797.356c-.63.285-.794-.119-.797-.356m0 0c-.443-.059-1.399-.071-1.683.356m0 0c-.118-.504-.319-1.565-.177-1.779.177-.267-1.506 2.935-3.277 3.913-.443.445-.478 1.37.089 2.223m3.365-4.357c-.143.342-.306 1.137.187 1.58m-3.552 2.778c-1.151.267-3.33 1.316-2.834 3.38m2.834-3.38c.274.569.823 1.354 1.88 2.059.507.338 1.671.574 2.905.529 1.336-.049 3.081 0 3.961-2.29M9.35 13.235c-.827.623-2.338 2.259-1.771 3.824m-.001 0c.62.889 2.409 2.508 4.605 1.868.413-.237 1.399-.498 2.037.356.797 1.067 3.631.534 3.985.178s.886-.623 2.037-.267c1.151.356 3.72-.445 4.163-1.156m-14.967 2.4c.266.356 1.151-.445 1.24-.445s.797.8 1.063 1.067m-2.303-.622 2.117 6.431m.186-5.808c.266.267.709-.356.797-.356s.709.623.797.712a.319.319 0 0 0 .2.072m-1.794-.428 1.134 5.809m.924-19.096c.448-.254 1.188-.574 1.937-.696m3.697 1.753c-1.012-.356-1.021-.482-1.404-.934m-2.293-.819c.722-.118 1.452-.053 1.937.432.153.153.265.279.357.387m-4.495 13.591c.164.009.407-.059.685-.339.443-.445.62-.178.709 0 .071.143.373.518.719.425m-2.113-.086.906 5.998m1.207-5.911a.581.581 0 0 0 .256-.158c.443-.445.886-.534 1.151-.178.159.213.413.394.706.41m-2.113-.074.22 6.063m1.893-5.99c.196.011.409-.053.623-.232.531-.445.709-.534 1.24-.178a.845.845 0 0 0 .478.155m-2.341.255-.308 5.99m2.648-6.244a.884.884 0 0 0 .585-.244c.089-.089.443-.534 1.063-.089a.537.537 0 0 0 .325.114m-1.973.219-.888 6.092m2.861-6.312-1.364 5.871M9.046 16.23l.704-.529m2.788.881.797.476m1.961 1.198.968-.529m1.144-1.145.798.705m1.227-1.057 1.056-.264m3.433.176-.528 1.057m-2.708-4.757.772.792m-2.553.265-1.144.352m-1.673-.352-.968.617m-2.289-.881.792.529m-3.345-1.322 1.056-.176m2.553-1.497.792.881m.25-3.436.895.705m2.553.616-.968.44"/></symbol><symbol id="icon-heart" viewBox="0 0 48 48"><path d="M25.24 41.62c-.68.24-1.8.24-2.48 0C16.96 39.64 4 31.38 4 17.38 4 11.2 8.98 6.2 15.12 6.2c3.64 0 6.86 1.76 8.88 4.48a11.06 11.06 0 0 1 8.88-4.48c6.14 0 11.12 5 11.12 11.18 0 14-12.96 22.26-18.76 24.24Z" stroke-width="1.5" stroke-linecap="round" stroke-linejoin="round"/></symbol><symbol id="icon-profile" viewBox="0 0 48 48"><path d="M24.24 25.56c-.14-.02-.32-.02-.48 0-3.52-.12-6.32-3-6.32-6.54 0-3.62 2.92-6.56 6.56-6.56 3.62 0 6.56 2.94 6.56 6.56-.02 3.54-2.8 6.42-6.32 6.54ZM37.48 38.76A19.868 19.868 0 0 1 24 44c-5.2 0-9.92-1.98-13.48-5.24.2-1.88 1.4-3.72 3.54-5.16 5.48-3.64 14.44-3.64 19.88 0 2.14 1.44 3.34 3.28 3.54 5.16Z" stroke-width="1.5" stroke-linecap="round" stroke-linejoin="round"/><path d="M24 44c11.046 0 20-8.954 20-20S35.046 4 24 4 4 12.954 4 24s8.954 20 20 20Z" stroke-width="1.5" stroke-linecap="round" stroke-linejoin="round"/></symbol><symbol id="icon-bag" viewBox="0 0 48 48"><path d="M18 44h12c8.04 0 9.48-3.22 9.9-7.14l1.5-12c.54-4.88-.86-8.86-9.4-8.86H16c-8.54 0-9.94 3.98-9.4 8.86l1.5 12C8.52 40.78 9.96 44 18 44ZM15 15.34V13.4c0-4.5 3.62-8.92 8.12-9.34 5.36-.52 9.88 3.7 9.88 8.96v2.76" stroke-width="1.5" stroke-miterlimit="10" stroke-linecap="round" stroke-linejoin="round"/></symbol><symbol id="icon-search" viewBox="0 0 48 48"><path d="M23.394 42.788c10.711 0 19.394-8.683 19.394-19.394C42.788 12.683 34.105 4 23.394 4 12.683 4 4 12.683 4 23.394c0 10.711 8.683 19.394 19.394 19.394ZM44 44l-6.06-6.06" stroke-width="1.5" stroke-linecap="round" stroke-linejoin="round"/></symbol><symbol id="icon-burger" viewBox="0 0 32 32"><path stroke-linejoin="round" stroke-linecap="round" d="M3.333 25.333h25.333M3.333 16h25.333M3.333 6.667h25.333"/></symbol><symbol id="icon-arrow-left" viewBox="0 0 33 32"><path stroke-linejoin="round" stroke-linecap="round" stroke-miterlimit="10" d="m20.333 26.56-8.693-8.693a2.647 2.647 0 0 1 0-3.733l8.693-8.693"/></symbol><symbol id="icon-arrow-right" viewBox="0 0 33 32"><path stroke-linejoin="round" stroke-linecap="round" stroke-miterlimit="10" d="m12.214 26.56 8.693-8.693a2.647 2.647 0 0 0 0-3.733l-8.693-8.693"/></symbol><symbol id="icon-close" viewBox="0 0 32 32"><path d="m26.667 7.303-1.97-1.97-7.808 7.808-7.808-7.808-1.97 1.97 7.808 7.808-7.808 7.808 1.97 1.97 7.808-7.808 7.808 7.808 1.97-1.97-7.808-7.808 7.808-7.808z"/></symbol><symbol id="icon-email" viewBox="0 0 32 32"><path d="M26.667 5.333H5.334A2.662 2.662 0 0 0 2.682 8l-.014 16c0 1.467 1.2 2.667 2.667 2.667h21.333c1.467 0 2.667-1.2 2.667-2.667V8c0-1.467-1.2-2.667-2.667-2.667zm-.534 5.668-9.426 5.892a1.343 1.343 0 0 1-1.421-.004l.006.003L5.866 11A1.133 1.133 0 1 1 7.07 9.083l-.004-.003 8.933 5.586 8.933-5.588a1.132 1.132 0 1 1 1.204 1.916l-.005.003z"/></symbol><symbol id="icon-phone" viewBox="0 0 32 32"><path d="m24.882 19.774-3.268-.373a2.555 2.555 0 0 0-2.11.732l-2.368 2.368c-3.669-1.894-6.585-4.81-8.427-8.372l-.051-.108 2.382-2.377a2.552 2.552 0 0 0 .731-2.122l.001.012-.373-3.243a2.578 2.578 0 0 0-2.557-2.276H6.613c-1.454 0-2.663 1.209-2.574 2.663.683 10.987 9.47 19.76 20.444 20.443 1.452.089 2.663-1.12 2.663-2.574v-2.238a2.549 2.549 0 0 0-2.253-2.532l-.012-.001z"/></symbol><symbol id="icon-person" viewBox="0 0 32 32"><path d="M16 16a5.333 5.333 0 1 0 0-10.666A5.333 5.333 0 1 0 16 16zm0 2.667c-3.561 0-10.667 1.787-10.667 5.333v1.333c0 .732.599 1.333 1.333 1.333h18.667c.732 0 1.333-.601 1.333-1.333V24c0-3.547-7.108-5.333-10.667-5.333z"/></symbol><symbol id="icon-send" viewBox="0 0 32 32"><path d="M32 0 0 18l10.227 3.787L26 7 14.003 23.187l.009.003-.012-.003V32l5.735-6.691L27.002 28l4.999-28z"/></symbol><symbol id="icon-check" viewBox="0 0 34 32"><path d="M4.267 0h25.6a4.267 4.267 0 0 1 4.267 4.267v23.467a4.267 4.267 0 0 1-4.267 4.267h-25.6A4.267 4.267 0 0 1 0 27.734V4.267A4.267 4.267 0 0 1 4.267 0z"/><path fill="#fff" style="fill:var(--color2,#fff);stroke:var(--color2,#fff)" stroke="#fff" stroke-width=".427" d="m8.442 16.538-.147-.141-.147.139-2.057 1.95.162.156 7.605 7.253.147-.141 16.171-15.426-.162-.154-2.029-1.935-.147.141-13.98 13.325-5.417-5.167z"/></symbol></defs></svg>